Coordinates
version=1
nRows=14
nColumns=24
inDegrees=yes

Units are S.I. units (second, meters, Newtons, ...)
If the header above contains a line with 'inDegrees', this indicates whether rotational values are in degrees (yes) or radians (no).

endheader
time	pelvis_tilt	pelvis_list	pelvis_rotation	pelvis_tx	pelvis_ty	pelvis_tz	lumbar_extension	lumbar_bending	lumbar_rotation	arm_flex_r	arm_add_r	arm_rot_r	elbow_flex_r	pro_sup_r	wrist_flex_r	wrist_dev_r	arm_flex_l	arm_add_l	arm_rot_l	elbow_flex_l	pro_sup_l	wrist_flex_l	wrist_dev_l
      0.00000000	     -9.01657056	      3.45081055	      1.23311695	      0.48482339	      0.86206497	      0.07847253	     -6.07932857	      0.51419468	      4.06319111	     -5.15289587	     -6.44604302	    -15.26602691	    112.44416480	     15.92404046	    -20.80138536	    -24.99999983	     -3.50130040	    -15.99460754	     12.72070069	     52.51593685	     90.00000018	      0.05373226	    -24.99999983
      0.00400000	     -9.01286178	      3.43812653	      1.20306859	      0.48500569	      0.86208923	      0.07881264	     -6.07287623	      0.50318072	      4.02985812	     -5.04717705	     -6.41452200	    -15.16612484	    112.99403350	     16.01369882	    -20.79664641	    -24.99999983	     -3.52012345	    -16.03871496	     12.68586356	     52.48348486	     90.00000018	      0.07770224	    -24.99999983
      0.00800000	     -9.01790278	      3.43239691	      1.17783629	      0.48510243	      0.86209112	      0.07897563	     -6.07597148	      0.49947207	      4.00308505	     -4.95393225	     -6.40464880	    -15.12792402	    113.59098222	     16.12670215	    -20.79973987	    -24.99999983	     -3.53004536	    -16.04031596	     12.62879497	     52.46773632	     90.00000018	      0.09945916	    -24.99999983
      0.01200000	     -9.01688094	      3.43059247	      1.15229079	      0.48526476	      0.86211013	      0.07908379	     -6.07246816	      0.49979366	      3.97679376	     -4.85874846	     -6.39150488	    -15.09280398	    114.17939640	     16.24114392	    -20.80226582	    -24.99999983	     -3.54795751	    -16.03770800	     12.58269982	     52.44321334	     90.00000018	      0.12005259	    -24.99999983
      0.01600000	     -9.01696735	      3.43137268	      1.12889356	      0.48543282	      0.86213317	      0.07913803	     -6.07011040	      0.50270350	      3.95323715	     -4.76121014	     -6.38627213	    -15.06659107	    114.77213899	     16.36382604	    -20.80059326	    -24.99999983	     -3.57364689	    -16.03782276	     12.54605727	     52.43678471	     90.00000018	      0.14130565	    -24.99999983
      0.02000000	     -9.01526943	      3.43124880	      1.10684957	      0.48562479	      0.86214096	      0.07920868	     -6.06600380	      0.50447263	      3.93083771	     -4.66997153	     -6.37752962	    -15.04226197	    115.36667098	     16.49403161	    -20.80153038	    -24.99999983	     -3.59675771	    -16.03362529	     12.50602566	     52.42207162	     90.00000018	      0.16084329	    -24.99999983
      0.02400000	     -9.01188205	      3.43239412	      1.08535405	      0.48584747	      0.86214849	      0.07927149	     -6.06004486	      0.50744540	      3.90917542	     -4.58062199	     -6.36613211	    -15.01661705	    115.96255094	     16.63120477	    -20.80306774	    -24.99999983	     -3.62110827	    -16.02546917	     12.46603886	     52.39933203	     90.00000018	      0.17843105	    -24.99999983
      0.02800000	     -9.00479125	      3.43735858	      1.06580840	      0.48613221	      0.86213824	      0.07926622	     -6.05016269	      0.51421203	      3.89026783	     -4.48110403	     -6.33569524	    -14.98842565	    116.55187822	     16.79182151	    -20.81010160	    -24.99999983	     -3.65058297	    -16.00761519	     12.42891083	     52.37252030	     90.00000018	      0.19613721	    -24.99999983
      0.03200000	     -8.96776767	      3.46672629	      1.07098694	      0.48681716	      0.86218000	      0.07882476	     -6.00881473	      0.54425848	      3.90140035	     -4.38946887	     -6.35459462	    -14.86426518	    116.99669096	     18.92207242	    -22.01335519	    -24.99999983	     -3.66283141	    -15.91835951	     12.44246202	     52.22094128	     90.00000018	      0.64735960	    -24.99999983
      0.03600000	     -8.95230172	      3.44991688	      1.05163235	      0.48723827	      0.86218596	      0.07925204	     -5.98999021	      0.52744460	      3.87783004	     -4.25211007	     -6.29359872	    -14.73531664	    117.44228793	     18.94033989	    -22.01074221	    -24.99999983	     -3.71174725	    -15.96203724	     12.39074049	     52.20498804	     90.00000018	      0.64003267	    -24.99999983
      0.04000000	     -8.95161928	      3.44402790	      1.02408271	      0.48744762	      0.86219769	      0.07946516	     -5.98649968	      0.52346905	      3.84848319	     -4.12548790	     -6.29351555	    -14.65847280	    117.97841380	     18.97955937	    -21.98663981	    -24.99999983	     -3.75392422	    -15.96766738	     12.31607547	     52.20448278	     90.00000018	      0.62766817	    -24.99999983
      0.04400000	     -8.95217621	      3.44370735	      0.99901543	      0.48762515	      0.86221555	      0.07955596	     -5.98448680	      0.52529385	      3.82292913	     -4.00986344	     -6.29723004	    -14.60178462	    118.54654789	     19.03235218	    -21.94962153	    -24.99999983	     -3.78828610	    -15.95376571	     12.23871421	     52.19901142	     90.00000018	      0.61537351	    -24.99999983
      0.04800000	     -8.95214568	      3.44958994	      0.97594626	      0.48781241	      0.86222938	      0.07956857	     -5.98188274	      0.53338566	      3.80049032	     -3.89718909	     -6.29611987	    -14.55980979	    119.12963439	     19.09624294	    -21.89945912	    -24.99999983	     -3.82206059	    -15.92829721	     12.16872518	     52.18980126	     90.00000018	      0.60487273	    -24.99999983
      0.05200000	     -8.95248718	      3.45547085	      0.95579694	      0.48801744	      0.86224399	      0.07955541	     -5.97972034	      0.54128603	      3.78109011	     -3.78507997	     -6.27037110	    -14.53182213	    119.72111422	     19.17118337	    -21.84478753	    -24.99999983	     -3.85718737	    -15.89751380	     12.09943079	     52.17584725	     90.00000018	      0.59577504	    -24.99999983
